<?xml version="1.0" encoding="UTF-8" standalone="no"?>
<svg
   xmlns:dc="http://purl.org/dc/elements/1.1/"
   xmlns:cc="http://creativecommons.org/ns#"
   xmlns:rdf="http://www.w3.org/1999/02/22-rdf-syntax-ns#"
   xmlns:svg="http://www.w3.org/2000/svg"
   xmlns="http://www.w3.org/2000/svg"
   viewBox="0 0 749.99982 600"
   version="1.1"
   width="750"
   height="600"
   xml:space="preserve"
   id="Layer_1"><defs
     id="defs13" /><metadata
     id="metadata24"><rdf:RDF><cc:Work
         rdf:about=""><dc:format>image/svg+xml</dc:format><dc:type
           rdf:resource="http://purl.org/dc/dcmitype/StillImage" /><dc:title /></cc:Work></rdf:RDF></metadata><path
     d="m0 37.5c0-20.711 16.789-37.5 37.5-37.5h675c20.711 0 37.5 16.789 37.5 37.5v525c0 20.71-16.79 37.5-37.5 37.5h-675c-20.711 0-37.5-16.79-37.5-37.5v-525z"
     id="path7" /><path
     d="m375 300"
     id="path9" /><path
     d="m650 25c41.421 0 75 33.578 75 75 0 15.192-4.5181 29.328-12.28 41.14l-254.09 388.71c-17.873 27.194-48.653 45.148-83.626 45.148-34.975 0-65.755-17.953-83.627-45.148l-254.1-388.71c-7.763-11.81-12.28-25.95-12.28-41.14 0-41.422 33.578-75 75-75h550z"
     fill="#fff"
     fill-rule="evenodd"
     id="path11" /><g
     id="routenum"><path
       d="m297.55 232.46q0 15.299-5.2239 28.731-5.2239 13.06-14.552 22.761-8.9552 9.7015-22.015 15.299-12.687 5.2239-27.612 5.2239-15.299 0-27.985-5.2239-12.313-5.2239-21.642-14.552-8.9552-9.3284-14.552-22.015-5.2239-13.06-5.9702-28.358h35.075q1.4925 15.298 10.821 25.373 9.7015 9.7015 24.254 9.7015 15.298 0 25-10.448 10.075-10.821 10.075-26.493 0-10.075-2.6119-18.657-2.6119-8.9552-7.0896-15.299-4.4776-6.7164-10.448-10.448-5.597-3.7313-12.313-3.7313h-17.537v-34.328h14.925q6.7164 0 10.075-2.2388 3.7314-2.2388 8.209-7.4627 10.821-11.94 10.821-27.985 0-14.552-8.209-23.134-7.8358-8.5821-20.896-8.5821-11.94 0-19.03 7.0896-6.7164 6.7164-8.209 19.403l-35.075-4.4776q1.4925-12.313 6.7164-22.761 5.2239-10.821 13.433-18.284 8.209-7.4627 19.03-11.567 10.821-4.4776 23.134-4.4776 13.433 0 25 4.8507t19.776 13.806q8.5821 8.5821 13.433 20.522 4.8508 11.567 4.8508 25 0 15.672-5.2239 29.104-4.8508 13.433-17.537 27.985 14.552 13.06 21.642 29.851 7.4627 16.791 7.4627 35.821z"
       id="path13" /><path
       d="m481.55 174.63q0 28.731-3.3582 48.881-2.9851 20.149-10.821 38.06-9.3284 22.388-23.507 32.836-13.806 10.075-35.075 10.075-22.388 0-36.567-10.075-13.806-10.448-23.134-32.836-7.8358-18.284-11.194-38.06-2.9851-20.149-2.9851-48.881 0-28.358 2.9851-48.507 3.3582-20.522 11.194-38.433 9.7015-22.388 23.507-32.09 14.179-10.075 36.194-10.075 21.642 0 35.448 10.075 13.806 9.7015 23.134 32.836 3.7314 9.3284 6.3433 18.657 2.9851 9.3284 4.4776 19.776 1.8657 10.075 2.6119 22.015 0.74627 11.567 0.74627 25.746zm-34.328 0q0-10.448-0.74627-19.03-0.37313-8.5821-1.4925-15.672-0.74626-7.4627-2.2388-14.179-1.4925-6.7164-3.3582-13.433-4.8508-16.791-12.313-24.254-7.0896-7.4627-18.284-7.4627-23.134 0-31.716 30.97-4.4776 14.179-6.3433 28.731-1.4925 14.179-1.4925 35.075 0 10.075 0.37314 18.657 0.74627 8.209 1.4925 15.672 1.1194 7.0896 2.612 14.179 1.4925 7.0896 3.3582 14.552 8.5821 30.97 31.716 30.97 11.194 0 18.284-7.4627 7.4627-7.4627 12.313-23.507 2.2388-7.4627 3.7313-14.179 1.4925-7.0896 2.2388-14.552 1.1194-7.4627 1.4925-15.672 0.37313-8.5821 0.37313-19.403z"
       id="path15" /><path
       d="m542.98 300v-205.22h-15.672v-27.239q10.821-0.74627 17.164-5.2239 6.7164-4.4776 10.821-12.313h23.881v250h-36.194z"
       id="path17" /></g></svg>